<?xml version="1.0" encoding="UTF-8" standalone="no"?>
<svg
   width="600"
   height="220"
   viewBox="0 0 600 220"
   fill="none"
   version="1.1"
   id="svg9"
   xmlns:xlink="http://www.w3.org/1999/xlink"
   xmlns="http://www.w3.org/2000/svg"
   xmlns:svg="http://www.w3.org/2000/svg">
  <defs
     id="defs3">
    <linearGradient
       id="streaming-gradient"
       x1="0"
       y1="20"
       x2="120"
       y2="130"
       gradientUnits="userSpaceOnUse">
      <stop
         stop-color="#ff69b4"
         id="stop1" />
      <stop
         offset="1"
         stop-color="#003366"
         id="stop2" />
    </linearGradient>
    <filter
       id="soft-shadow"
       x="-0.012982019"
       y="-0.037155298"
       width="1.0286686"
       height="1.089792">
      <feGaussianBlur
         in="SourceAlpha"
         stdDeviation="2"
         id="feGaussianBlur2" />
      <feOffset
         dx="1"
         dy="2"
         result="offsetblur"
         id="feOffset2" />
      <feComponentTransfer
         id="feComponentTransfer2">
        <feFuncA
           type="linear"
           slope="0.3"
           id="feFuncA2" />
      </feComponentTransfer>
      <feMerge
         id="feMerge3">
        <feMergeNode
           id="feMergeNode2" />
        <feMergeNode
           in="SourceGraphic"
           id="feMergeNode3" />
      </feMerge>
    </filter>
    <linearGradient
       xlink:href="#streaming-gradient"
       id="linearGradient2"
       gradientUnits="userSpaceOnUse"
       x1="0"
       y1="20"
       x2="120"
       y2="130" />
    <linearGradient
       xlink:href="#streaming-gradient"
       id="linearGradient3"
       gradientUnits="userSpaceOnUse"
       x1="0"
       y1="20"
       x2="120"
       y2="130" />
    <linearGradient
       xlink:href="#streaming-gradient"
       id="linearGradient4"
       gradientUnits="userSpaceOnUse"
       x1="0"
       y1="20"
       x2="120"
       y2="130" />
    <linearGradient
       xlink:href="#streaming-gradient"
       id="linearGradient5"
       gradientUnits="userSpaceOnUse"
       x1="0"
       y1="20"
       x2="120"
       y2="130" />
    <linearGradient
       xlink:href="#streaming-gradient"
       id="linearGradient6"
       gradientUnits="userSpaceOnUse"
       x1="0"
       y1="20"
       x2="120"
       y2="130" />
  </defs>
  <g
     filter="url(#soft-shadow)"
     id="g9">
    <g
       transform="translate(20,55)"
       id="g7">
      <path
         d="M 35,25 75,50 35,75 Z"
         fill="url(#streaming-gradient)"
         id="path3"
         style="fill:url(#linearGradient2)" />
      <path
         d="M 85,15 C 70,5 55,5 45,10 v 8 c 7,-3 20,-3 30,4 z"
         fill="url(#streaming-gradient)"
         opacity="0.9"
         id="path4"
         style="fill:url(#linearGradient3)" />
      <path
         d="M 85,85 C 70,95 55,95 45,90 v -8 c 7,3 20,3 30,-4 z"
         fill="url(#streaming-gradient)"
         opacity="0.9"
         id="path5"
         style="fill:url(#linearGradient4)" />
      <path
         d="M 105,0 C 80,-10 50,-5 30,10 V 20 C 45,10 70,8 95,18 Z"
         fill="url(#streaming-gradient)"
         opacity="0.7"
         id="path6"
         style="fill:url(#linearGradient5)" />
      <path
         d="M 105,100 C 80,110 50,105 30,90 V 80 c 15,10 40,12 65,2 z"
         fill="url(#streaming-gradient)"
         opacity="0.7"
         id="path7"
         style="fill:url(#linearGradient6)" />
    </g>
    <g
       font-family="Inter, Roboto, 'Helvetica Neue', sans-serif"
       transform="translate(130,100)"
       id="g8">
      <text
         font-weight="800"
         font-size="72px"
         fill="#ff69b4"
         letter-spacing="-1"
         id="text7">Diokko</text>
      <text
         font-weight="800"
         font-size="72px"
         fill="#003366"
         x="40"
         y="60"
         letter-spacing="-1"
         id="text8">Player</text>
    </g>
  </g>
</svg>
